PathFileType	4	(X/Y/Z)	/Users/niels/Desktop/University/Third Semester/Perception and Action/Exam/Gymnastics Motion Tracking/Code for Gym Tracking/Analyzed Data/Webcam_Backflip/id3_5_trajectory_Sports2D/id3_5_trajectory_Sports2D_px_person00.trc
DataRate	CameraRate	NumFrames	NumMarkers	Units	OrigDataRate	OrigDataStartFrame	OrigNumFrames
29.8125	29.8125	9	22	m	29.8125	140	160
Frame#	Time	Hip			RHip			RKnee			RAnkle			RBigToe			RSmallToe			RHeel			LHip			LKnee			LAnkle			LBigToe			LSmallToe			LHeel			Neck			Head			Nose			RShoulder			RElbow			RWrist			LShoulder			LElbow			LWrist		
		X1	Y1	Z1	X2	Y2	Z2	X3	Y3	Z3	X4	Y4	Z4	X5	Y5	Z5	X6	Y6	Z6	X7	Y7	Z7	X8	Y8	Z8	X9	Y9	Z9	X10	Y10	Z10	X11	Y11	Z11	X12	Y12	Z12	X13	Y13	Z13	X14	Y14	Z14	X15	Y15	Z15	X16	Y16	Z16	X17	Y17	Z17	X18	Y18	Z18	X19	Y19	Z19	X20	Y20	Z20	X21	Y21	Z21	X22	Y22	Z22
140	4.696016771488469	1.3792502452950748	-0.5909590950047419	0.0	1.3465292889737	-0.5908877778767325	0.0	1.3200784340952747	-0.7004202115685849	0.0	1.319416223080723	-0.8290010593478426	0.0	1.3023066764969953	-0.8496819356308684	0.0	1.2854796427972455	-0.8456206481257496	0.0	1.3238481198109333	-0.8402943892842932	0.0	1.4128035047177336	-0.5962404511061657	0.0	1.4214390444774667	-0.7092222191306774	0.0	1.4246083847197113	-0.8241341690877833	0.0	1.4181618439941903	-0.8442747297861819	0.0	1.4399276479747118	-0.8396328550140411	0.0	1.4260522585508562	-0.833322504087867	0.0	1.3849622245868645	-0.3942826062936169	0.0	1.3794985339948886	-0.3109856733094463	0.0	1.3785606837062305	-0.3623597632970601	0.0	1.3284915528232644	-0.43117002920042036	0.0	1.3104801584688481	-0.5109529992354441	0.0	1.2845228076208275	-0.5893348526112152	0.0	1.447974932549176	-0.4257983487762701	0.0	1.4766050979045406	-0.5071746253621183	0.0	1.4943881877476142	-0.5833094565087475	0.0
141	4.729559748427672	1.3764598551832663	-0.5939485074839082	0.0	1.3435976924199118	-0.5945878270945542	0.0	1.3203657926031702	-0.7061930516620452	0.0	1.3196540212899641	-0.8333177397774234	0.0	1.3007322041070692	-0.8532692317558402	0.0	1.2843609788601427	-0.849797448993297	0.0	1.3239276203493615	-0.8440745578530425	0.0	1.409880636660505	-0.5989601604118591	0.0	1.4204355904219295	-0.7113560259134224	0.0	1.4248829196604804	-0.8252728342302914	0.0	1.4201889690553107	-0.8455289655991395	0.0	1.4411435190827415	-0.8403169581352244	0.0	1.4259998058105225	-0.8341122665284133	0.0	1.3787686951060951	-0.39661851698002853	0.0	1.371073319627096	-0.3133524358229838	0.0	1.3713227640660566	-0.3653571807437126	0.0	1.3233514027509745	-0.4340365388021821	0.0	1.3076406447586628	-0.5144214382103076	0.0	1.283288157466725	-0.5939588927182652	0.0	1.442195411979907	-0.42681116565781635	0.0	1.4707798405959136	-0.5089956859394728	0.0	1.488009622919222	-0.5866534586044427	0.0
142	4.763102725366876	1.373355172110181	-0.5947323431132672	0.0	1.3403612336543427	-0.5959401736393531	0.0	1.3200465395063232	-0.7094790859096458	0.0	1.3197844264325271	-0.8354544010029339	0.0	1.2996936704057072	-0.8549382442790439	0.0	1.2838231099495874	-0.8519306442353658	0.0	1.3239711792519195	-0.8459491464177539	0.0	1.4067240532816512	-0.5994253995379026	0.0	1.4195615304234266	-0.7115639370635134	0.0	1.425455202894142	-0.8238298945842356	0.0	1.4237812604930216	-0.844886263926023	0.0	1.4435817226979948	-0.8389767991503659	0.0	1.4258371296599597	-0.8324648553969897	0.0	1.3722897674306571	-0.3969161004174681	0.0	1.3617121131337098	-0.3136427735665476	0.0	1.3633497308233111	-0.36687157724861796	0.0	1.3177423039174125	-0.43476654981134405	0.0	1.3045243536309494	-0.5159245111364351	0.0	1.2821174566253497	-0.5964975055576812	0.0	1.4362725273603223	-0.42575227161705737	0.0	1.4640760080370974	-0.5088549160829116	0.0	1.480505006361449	-0.5882339040800969	0.0
143	4.796645702306079	1.370085891735537	-0.5931407757481328	0.0	1.3369060831423412	-0.5947915175713276	0.0	1.3192010625279769	-0.7102997088182481	0.0	1.3197380321648013	-0.8354213969998534	0.0	1.2997204879733428	-0.8545219503875783	0.0	1.2842199061778765	-0.851824959910435	0.0	1.3238779268039367	-0.8458929134940361	0.0	1.403542461670561	-0.5974338676405865	0.0	1.4189638689684383	-0.7099103583575149	0.0	1.4261993001073006	-0.8194229033178908	0.0	1.4285008174934442	-0.8422754811015897	0.0	1.4471175288796183	-0.835558066351237	0.0	1.42549695544922	-0.8278831737358737	0.0	1.3657239035560838	-0.395191706111712	0.0	1.351672989560201	-0.31191706753949083	0.0	1.3548497841139253	-0.36691141599833227	0.0	1.3117914937588053	-0.4332100672174957	0.0	1.3011290737918226	-0.5152586831245608	0.0	1.2809665461113706	-0.5966839767244442	0.0	1.4303777570744958	-0.4226045678845109	0.0	1.4567199308927252	-0.506524123910706	0.0	1.4722098636912109	-0.587563277014357	0.0
144	4.830188679245282	1.3667962244817837	-0.5892205555822224	0.0	1.33331215461929	-0.5912689360312745	0.0	1.3180051585620094	-0.7089384431692539	0.0	1.319466409817591	-0.833439122329418	0.0	1.3012063373263565	-0.8521728724534714	0.0	1.2857215914885163	-0.849612655431841	0.0	1.3235778685460373	-0.8440414814384352	0.0	1.4005371136536808	-0.5930191747797723	0.0	1.4187209907916623	-0.706755150871929	0.0	1.4268168998528294	-0.8120027077121277	0.0	1.4334437095041488	-0.8378375200611083	0.0	1.451158876546396	-0.8301999248198074	0.0	1.4248656626749783	-0.8201254596777009	0.0	1.3592705356937067	-0.39181830292762226	0.0	1.3414040709109865	-0.3086990575270875	0.0	1.3461313561071966	-0.3655527112578283	0.0	1.3057099644530723	-0.4295319342398884	0.0	1.2974987204477428	-0.5124688674923024	0.0	1.2797054365231035	-0.5945786341739115	0.0	1.4246089412000191	-0.4176163907097624	0.0	1.4489713538891416	-0.5020603062804909	0.0	1.463628309756247	-0.5844671748343003	0.0
145	4.863731656184486	1.3636013566387528	-0.583304247350664	0.0	1.3297029742928217	-0.5858533261910759	0.0	1.3166513334539742	-0.7059043670592715	0.0	1.3189530555530187	-0.8299237097581019	0.0	1.3041932774232001	-0.8483980688012528	0.0	1.2882948413647677	-0.8458335812283566	0.0	1.3230472056515552	-0.8407564422162082	0.0	1.397858276291764	-0.5865127001765025	0.0	1.418838934585206	-0.7025966925353392	0.0	1.426850033496311	-0.8018034557546069	0.0	1.4373408344000551	-0.8317738478356032	0.0	1.454620181804197	-0.8230962204759663	0.0	1.423689751683831	-0.8092569762106727	0.0	1.353087186110362	-0.38739000611262064	0.0	1.331501499016636	-0.304845742595446	0.0	1.337576852697817	-0.362930988810656	0.0	1.2997185120589374	-0.4242219631521647	0.0	1.29366300625715	-0.5078960434657365	0.0	1.2781438023901068	-0.590582550918138	0.0	1.4190236892561925	-0.4112490339687512	0.0	1.4411517921307342	-0.49580945635920476	0.0	1.4553264799286887	-0.5791783806742478	0.0
146	4.897274633123689	1.3606024888154074	-0.5760522823776355	0.0	1.3262673744868863	-0.5792858722033765	0.0	1.315293423063086	-0.7019256718933545	0.0	1.318233500554831	-0.8255018017666744	0.0	1.3082184030228592	-0.8437816899800997	0.0	1.2917383451765994	-0.8411836419612965	0.0	1.3222757939822591	-0.836655023610268	0.0	1.3955778412477617	-0.5785554692046396	0.0	1.4192602881427605	-0.6979117899409458	0.0	1.4256944673592529	-0.7893408149731997	0.0	1.4388555097057476	-0.8242983053934166	0.0	1.456189291175836	-0.8144947500356042	0.0	1.4215057103498998	-0.7957788693468062	0.0	1.3472924434265514	-0.3825868214147258	0.0	1.3226169940271664	-0.3012340803507823	0.0	1.32968893032848	-0.3593584301655743	0.0	1.293974195527585	-0.4180293717893866	0.0	1.2895795555794365	-0.5021784494149567	0.0	1.2761268242669288	-0.5853573578435178	0.0	1.4136699938504698	-0.4041265136545734	0.0	1.433700502932143	-0.4883964390115314	0.0	1.4478038128315225	-0.5723534986101048	0.0
147	4.930817610062892	1.3578981391622347	-0.5683274472631424	0.0	1.3232048267793552	-0.5723463507900972	0.0	1.314042067871503	-0.6978773869601035	0.0	1.3174228010587021	-0.820995659345605	0.0	1.312512774796061	-0.8387798347847699	0.0	1.2956993390941598	-0.8362589835384081	0.0	1.3212435361798107	-0.8325612719477581	0.0	1.3936903226195423	-0.5699818605557887	0.0	1.4198395290155479	-0.692879901334647	0.0	1.4227420636955064	-0.7756053350832938	0.0	1.4370437111009475	-0.8158239905107911	0.0	1.4548129508481955	-0.8049262882751999	0.0	1.4177295548273432	-0.780881026633711	0.0	1.3420007951551485	-0.3781167989428322	0.0	1.315333567478966	-0.29846204617720357	0.0	1.32307280033632	-0.3554187626066232	0.0	1.28854740665584	-0.41180860856503926	0.0	1.2851367830957097	-0.496141288087354	0.0	1.27357824338005	-0.5797127521712003	0.0	1.4086152238259833	-0.3969746919678697	0.0	1.4271427118595736	-0.4806473474096131	0.0	1.4414365859007061	-0.564948056319073	0.0
148	4.964360587002096	1.3555840116656916	-0.560961604809154	0.0	1.3206579112580568	-0.5657204926160431	0.0	1.312988400212174	-0.6945385989343263	0.0	1.3166882864654972	-0.8172200598294477	0.0	1.316383516343756	-0.833834731266269	0.0	1.2996199963316621	-0.8316164740932392	0.0	1.3199880341004215	-0.8293040745622456	0.0	1.3921507230706838	-0.5616314534370168	0.0	1.4203064595463537	-0.6871502647145431	0.0	1.4176757368447102	-0.7622059276843419	0.0	1.431757253043493	-0.8071863402433791	0.0	1.450125006062582	-0.795402892908454	0.0	1.4119441851524754	-0.7665181720965488	0.0	1.3373102135834471	-0.37458921657046196	0.0	1.3100650130459581	-0.2967188949439282	0.0	1.3181991643839774	-0.35179350234395484	0.0	1.2834328085627498	-0.4063199405840694	0.0	1.2802108441689193	-0.4905957845538632	0.0	1.2704590606494395	-0.5744647142002137	0.0	1.403984570693346	-0.39051209771196926	0.0	1.421925916493252	-0.47343931071905293	0.0	1.4364913571861684	-0.5579474087685157	0.0
